<svg xmlns="http://www.w3.org/2000/svg" xmlns:xlink="http://www.w3.org/1999/xlink" width="800" zoomAndPan="magnify" viewBox="0 0 600 374.999991" height="500" preserveAspectRatio="xMidYMid meet" version="1.0"><defs><g/></defs><g fill="#b3b5a7" fill-opacity="1"><g transform="translate(0.0000072, 280.096154)"><g><path d="M 2.359375 0 L 2.359375 -2.953125 L 9.765625 -5.625 C 13.703125 -7.195312 16.753906 -9.113281 18.921875 -11.375 C 21.097656 -13.644531 22.875 -16.851562 24.25 -21 L 85.171875 -195.78125 L 110.3125 -195.78125 L 170.359375 -19.8125 C 171.929688 -15.476562 173.703125 -12.175781 175.671875 -9.90625 C 177.648438 -7.632812 180.707031 -5.710938 184.84375 -4.140625 L 188.390625 -2.953125 L 188.390625 0 L 113.265625 0 L 113.265625 -2.953125 L 117.703125 -4.4375 C 121.847656 -6.007812 124.363281 -8.222656 125.25 -11.078125 C 126.132812 -13.941406 125.988281 -17.347656 124.8125 -21.296875 L 110.90625 -63.875 L 45.25 -63.875 L 31.046875 -22.1875 C 29.671875 -17.84375 29.226562 -14.390625 29.71875 -11.828125 C 30.21875 -9.265625 32.535156 -7.195312 36.671875 -5.625 L 43.171875 -2.953125 L 43.171875 0 Z M 47.3125 -69.796875 L 109.125 -69.796875 L 79.265625 -161.78125 Z M 47.3125 -69.796875 "/></g></g></g><g fill="#b3b5a7" fill-opacity="1"><g transform="translate(192.239482, 280.096154)"><g><path d="M 6.796875 0 L 6.796875 -2.953125 L 10.34375 -4.140625 C 17.445312 -6.503906 21 -11.429688 21 -18.921875 L 21 -177.15625 C 21 -181.09375 20.207031 -184.097656 18.625 -186.171875 C 17.050781 -188.242188 14.289062 -189.773438 10.34375 -190.765625 L 6.5 -191.640625 L 6.5 -194.609375 L 60.625 -207.328125 L 64.171875 -204.65625 L 63 -163.25 L 63 -62.109375 C 63 -54.816406 63.046875 -47.570312 63.140625 -40.375 C 63.242188 -33.175781 63.296875 -26.023438 63.296875 -18.921875 C 63.296875 -14.984375 64.082031 -11.78125 65.65625 -9.3125 C 67.226562 -6.851562 69.890625 -5.03125 73.640625 -3.84375 L 77.484375 -2.953125 L 77.484375 0 Z M 6.796875 0 "/></g></g></g><g fill="#b3b5a7" fill-opacity="1"><g transform="translate(276.824845, 280.096154)"><g><path d="M 56.484375 3.84375 L 6.5 0 L 6.5 -2.953125 L 9.46875 -3.546875 C 17.15625 -5.316406 21 -10.25 21 -18.34375 L 21 -176.5625 C 21 -180.707031 20.359375 -183.863281 19.078125 -186.03125 C 17.796875 -188.195312 15.179688 -189.675781 11.234375 -190.46875 L 7.09375 -191.640625 L 7.09375 -194.609375 L 59.734375 -207.328125 L 63.296875 -204.65625 L 62.109375 -162.953125 L 62.109375 -133.09375 C 68.617188 -137.625 75.71875 -141.019531 83.40625 -143.28125 C 91.09375 -145.550781 98.878906 -146.6875 106.765625 -146.6875 C 118.003906 -146.6875 127.960938 -144.070312 136.640625 -138.84375 C 145.316406 -133.625 152.164062 -125.539062 157.1875 -114.59375 C 162.21875 -103.65625 164.734375 -89.609375 164.734375 -72.453125 C 164.734375 -55.304688 161.921875 -41.0625 156.296875 -29.71875 C 150.679688 -18.382812 143.191406 -9.859375 133.828125 -4.140625 C 124.460938 1.578125 114.160156 4.4375 102.921875 4.4375 C 95.628906 4.4375 88.285156 3.445312 80.890625 1.46875 C 73.492188 -0.5 66.9375 -3.253906 61.21875 -6.796875 Z M 88.140625 -5.625 C 94.441406 -5.625 99.957031 -7.59375 104.6875 -11.53125 C 109.425781 -15.476562 113.175781 -22.234375 115.9375 -31.796875 C 118.695312 -41.359375 120.078125 -54.519531 120.078125 -71.28125 C 120.078125 -88.039062 118.796875 -100.953125 116.234375 -110.015625 C 113.671875 -119.085938 110.070312 -125.394531 105.4375 -128.9375 C 100.800781 -132.488281 95.226562 -134.265625 88.71875 -134.265625 C 79.457031 -134.265625 70.882812 -131.703125 63 -126.578125 L 63 -13.015625 C 66.738281 -10.648438 70.578125 -8.828125 74.515625 -7.546875 C 78.460938 -6.265625 83.003906 -5.625 88.140625 -5.625 Z M 88.140625 -5.625 "/></g></g></g><g fill="#b3b5a7" fill-opacity="1"><g transform="translate(450.431868, 280.096154)"><g><path d="M 80.140625 -146.6875 C 92.960938 -146.6875 103.90625 -144.070312 112.96875 -138.84375 C 122.039062 -133.625 128.992188 -126.53125 133.828125 -117.5625 C 138.660156 -108.59375 141.078125 -98.390625 141.078125 -86.953125 C 141.078125 -84.785156 140.976562 -82.566406 140.78125 -80.296875 C 140.582031 -78.023438 140.1875 -76.003906 139.59375 -74.234375 L 51.453125 -74.234375 C 51.648438 -52.941406 55.445312 -37.613281 62.84375 -28.25 C 70.238281 -18.882812 81.234375 -14.203125 95.828125 -14.203125 C 105.679688 -14.203125 113.664062 -15.773438 119.78125 -18.921875 C 125.894531 -22.078125 131.613281 -26.710938 136.9375 -32.828125 L 139.890625 -30.171875 C 133.773438 -19.328125 125.640625 -10.847656 115.484375 -4.734375 C 105.335938 1.378906 93.164062 4.4375 78.96875 4.4375 C 64.96875 4.4375 52.546875 1.429688 41.703125 -4.578125 C 30.859375 -10.597656 22.378906 -19.222656 16.265625 -30.453125 C 10.148438 -41.691406 7.09375 -55.101562 7.09375 -70.6875 C 7.09375 -86.851562 10.640625 -100.601562 17.734375 -111.9375 C 24.835938 -123.28125 33.957031 -131.90625 45.09375 -137.8125 C 56.238281 -143.726562 67.921875 -146.6875 80.140625 -146.6875 Z M 79.265625 -140.78125 C 73.546875 -140.78125 68.664062 -139.050781 64.625 -135.59375 C 60.582031 -132.144531 57.425781 -126.035156 55.15625 -117.265625 C 52.882812 -108.492188 51.648438 -96.117188 51.453125 -80.140625 L 102.03125 -80.140625 C 104 -101.640625 103.207031 -117.117188 99.65625 -126.578125 C 96.113281 -136.046875 89.316406 -140.78125 79.265625 -140.78125 Z M 79.265625 -140.78125 "/></g></g></g></svg>