<svg xmlns="http://www.w3.org/2000/svg" xmlns:xlink="http://www.w3.org/1999/xlink" width="1123" zoomAndPan="magnify" viewBox="0 0 841.92 595.499987" height="794" preserveAspectRatio="xMidYMid meet" version="1.0"><defs><clipPath id="c1ffc3567f"><path d="M 0.3125 331.320312 L 841 331.320312 L 841 578 L 0.3125 578 Z M 0.3125 331.320312 " clip-rule="nonzero"/></clipPath><clipPath id="1dd1036b63"><path d="M 0.3125 342 L 841 342 L 841 594.773438 L 0.3125 594.773438 Z M 0.3125 342 " clip-rule="nonzero"/></clipPath></defs><g clip-path="url(#c1ffc3567f)"><path fill="#ffffff" d="M 840.109375 577.90625 L 840.109375 368.425781 L 837.582031 368.597656 L 835.386719 369.777344 L 832.859375 369.101562 L 831.507812 370.28125 L 828.980469 370.113281 L 826.785156 370.453125 L 825.269531 371.292969 L 821.222656 370.453125 L 820.039062 371.800781 L 817.34375 371.96875 L 814.644531 372.308594 L 814.644531 373.824219 L 813.125 374.667969 L 811.945312 375.511719 L 808.570312 375.34375 L 808.234375 376.691406 L 806.210938 377.199219 L 803.679688 376.691406 L 801.65625 377.367188 L 800.136719 376.355469 L 798.28125 375.679688 L 795.246094 376.1875 L 792.886719 376.015625 L 792.210938 374.160156 L 789.679688 373.992188 L 787.152344 374.160156 L 785.128906 373.65625 L 782.261719 374.332031 L 780.40625 373.65625 L 779.5625 372.644531 L 777.707031 371.800781 L 780.40625 370.621094 L 778.042969 369.777344 L 777.03125 368.765625 L 776.527344 368.089844 L 776.019531 366.742188 L 773.828125 366.402344 L 771.804688 365.898438 L 768.429688 366.910156 L 766.910156 365.898438 L 764.382812 365.222656 L 766.742188 363.703125 L 763.371094 363.199219 L 763.707031 362.019531 L 762.863281 360.835938 L 761.515625 359.65625 L 758.816406 359.65625 L 757.804688 358.476562 L 755.949219 357.96875 L 752.40625 358.980469 L 750.382812 358.476562 L 748.023438 358.8125 L 745.492188 358.476562 L 742.960938 358.476562 L 740.769531 359.824219 L 739.082031 358.476562 L 737.566406 358.140625 L 737.566406 356.957031 L 736.214844 356.113281 L 733.347656 355.441406 L 732.167969 354.597656 L 733.515625 353.246094 L 729.636719 353.585938 L 729.132812 352.066406 L 727.613281 351.222656 L 724.746094 351.054688 L 723.398438 349.875 L 722.046875 351.390625 L 719.519531 351.730469 L 716.820312 351.730469 L 713.78125 351.5625 L 711.757812 352.066406 L 709.230469 352.234375 L 707.710938 353.246094 L 705.6875 354.597656 L 702.988281 353.753906 L 701.640625 352.742188 L 699.277344 352.40625 L 696.917969 352.066406 L 695.90625 351.222656 L 694.21875 350.886719 L 691.855469 351.390625 L 690 350.886719 L 688.316406 349.707031 L 686.292969 349.875 L 683.085938 349.367188 L 682.242188 350.550781 L 680.21875 351.054688 L 678.363281 351.5625 L 676.339844 351.898438 L 673.640625 351.730469 L 671.953125 352.574219 L 670.605469 353.753906 L 669.425781 354.429688 L 667.0625 354.765625 L 666.390625 355.609375 L 664.027344 356.285156 L 665.039062 357.464844 L 663.859375 358.476562 L 661.160156 358.308594 L 658.800781 357.800781 L 656.4375 357.464844 L 654.078125 357.464844 L 651.714844 359.152344 L 649.355469 358.308594 L 646.992188 358.980469 L 644.460938 357.96875 L 643.113281 358.980469 L 642.101562 359.996094 L 642.101562 361.34375 L 638.898438 361.511719 L 635.355469 362.019531 L 638.054688 363.367188 L 639.066406 364.378906 L 640.246094 365.390625 L 638.054688 366.570312 L 636.199219 367.753906 L 638.898438 368.765625 L 638.898438 369.777344 L 636.703125 370.789062 L 634.34375 369.945312 L 631.980469 369.777344 L 629.621094 369.4375 L 627.257812 369.609375 L 624.730469 369.609375 L 622.535156 370.28125 L 620.34375 370.789062 L 618.152344 371.464844 L 615.453125 370.957031 L 612.921875 370.789062 L 611.066406 371.96875 L 608.03125 370.957031 L 605.503906 370.957031 L 603.816406 372.8125 L 601.117188 371.632812 L 599.09375 372.8125 L 596.730469 372.476562 L 594.371094 371.96875 L 592.179688 372.476562 L 590.152344 371.96875 L 588.296875 371.464844 L 585.261719 371.96875 L 583.40625 371.125 L 580.035156 372.136719 L 578.179688 371.125 L 577.335938 369.945312 L 574.46875 369.609375 L 574.804688 368.089844 L 574.128906 366.910156 L 569.914062 367.078125 L 568.394531 366.402344 L 567.214844 365.558594 L 564.855469 365.054688 L 564.347656 363.199219 L 558.78125 363.199219 L 556.589844 362.691406 L 555.410156 364.378906 L 553.214844 364.546875 L 550.179688 363.367188 L 548.324219 364.042969 L 546.300781 364.546875 L 543.773438 365.222656 L 541.746094 364.378906 L 540.90625 363.535156 L 538.878906 363.03125 L 541.242188 361.175781 L 536.855469 361.175781 L 538.710938 359.488281 L 534.15625 359.992188 L 533.144531 359.320312 L 531.121094 358.8125 L 529.097656 358.308594 L 527.410156 357.296875 L 524.710938 358.308594 L 522.519531 358.644531 L 520.328125 357.632812 L 518.136719 357.296875 L 515.941406 358.8125 L 513.582031 357.296875 L 511.386719 358.308594 L 509.195312 357.96875 L 507.003906 358.644531 L 504.8125 358.8125 L 502.449219 359.152344 L 500.089844 358.308594 L 497.726562 357.800781 L 495.195312 358.308594 L 492.835938 358.140625 L 490.472656 357.632812 L 489.800781 356.621094 L 490.136719 355.609375 L 487.269531 354.933594 L 487.777344 353.921875 L 488.789062 352.742188 L 486.933594 352.234375 L 486.425781 350.71875 L 482.714844 352.066406 L 480.691406 351.5625 L 479.679688 349.875 L 476.8125 350.378906 L 474.789062 349.707031 L 474.957031 348.695312 L 472.597656 347.851562 L 470.066406 347.34375 L 467.03125 346.839844 L 461.464844 344.644531 L 458.089844 343.972656 L 451.175781 343.800781 L 447.632812 344.308594 L 448.644531 345.488281 L 448.816406 346.667969 L 446.960938 347.511719 L 447.296875 348.863281 L 444.09375 348.1875 L 442.238281 348.863281 L 439.875 348.863281 L 438.359375 349.875 L 436.332031 350.210938 L 433.296875 350.042969 L 431.78125 350.886719 L 430.429688 351.730469 L 427.902344 351.898438 L 426.550781 352.742188 L 426.382812 354.257812 L 424.863281 354.933594 L 420.648438 354.429688 L 420.3125 355.777344 L 418.625 356.453125 L 417.445312 357.800781 L 416.261719 356.285156 L 412.382812 357.296875 L 412.382812 355.273438 L 409.347656 355.777344 L 406.816406 355.777344 L 405.300781 354.933594 L 405.636719 353.246094 L 401.925781 353.078125 L 402.601562 351.390625 L 399.058594 351.222656 L 398.046875 350.378906 L 395.855469 350.71875 L 393.832031 350.042969 L 391.976562 348.863281 L 389.953125 348.355469 L 387.253906 349.875 L 385.398438 350.210938 L 383.207031 350.550781 L 380.84375 350.71875 L 378.144531 350.042969 L 375.785156 350.210938 L 373.421875 351.054688 L 373.589844 349.707031 L 370.554688 349.03125 L 370.050781 348.019531 L 369.375 347.007812 L 372.074219 345.488281 L 369.207031 344.816406 L 367.855469 344.476562 L 367.183594 345.152344 L 364.988281 345.320312 L 361.953125 344.644531 L 359.59375 344.644531 L 358.917969 346.5 L 355.882812 345.828125 L 353.351562 347.34375 L 355.375 345.320312 L 350.820312 344.984375 L 351.160156 343.800781 L 350.484375 342.789062 L 349.472656 341.949219 L 348.964844 340.933594 L 348.292969 340.09375 L 346.941406 339.25 L 345.761719 338.238281 L 342.390625 338.742188 L 340.195312 338.574219 L 338.679688 337.898438 L 337.328125 336.550781 L 334.628906 336.550781 L 333.28125 335.199219 L 330.75 335.03125 L 328.050781 334.863281 L 325.355469 334.695312 L 322.992188 334.019531 L 320.125 335.199219 L 317.933594 334.019531 L 315.066406 333.851562 L 312.535156 334.1875 L 311.019531 335.199219 L 308.488281 334.863281 L 306.125 334.863281 L 305.113281 336.71875 L 302.753906 335.539062 L 301.574219 334.863281 L 297.691406 335.539062 L 296.175781 334.695312 L 293.476562 334.527344 L 291.285156 334.019531 L 290.777344 332.503906 L 288.25 331.320312 L 286.730469 333.007812 L 283.863281 333.175781 L 282.683594 334.1875 L 280.996094 334.863281 L 278.464844 335.199219 L 277.792969 336.382812 L 275.429688 336.382812 L 272.898438 336.042969 L 271.382812 337.394531 L 269.019531 337.394531 L 266.660156 337.054688 L 263.960938 338.40625 L 261.769531 337.226562 L 259.238281 337.226562 L 256.878906 336.210938 L 253.839844 336.71875 L 251.3125 337.226562 L 249.117188 337.730469 L 246.925781 338.238281 L 247.261719 340.09375 L 244.566406 340.261719 L 242.035156 340.597656 L 239.84375 341.105469 L 237.648438 341.441406 L 236.46875 342.453125 L 234.613281 343.296875 L 232.082031 342.285156 L 229.722656 343.464844 L 227.359375 343.632812 L 225 343.464844 L 223.3125 343.972656 L 221.121094 344.140625 L 218.421875 344.476562 L 218.253906 345.65625 L 216.566406 346.332031 L 214.710938 347.007812 L 214.542969 348.523438 L 211.675781 347.851562 L 208.976562 348.863281 L 206.445312 348.695312 L 204.085938 348.019531 L 201.554688 347.511719 L 199.027344 347.34375 L 196.664062 347.511719 L 194.472656 348.695312 L 192.109375 348.523438 L 189.75 348.1875 L 188.398438 347.175781 L 186.039062 347.007812 L 184.183594 346.332031 L 181.652344 346.332031 L 178.785156 346.5 L 177.101562 346.5 L 174.402344 345.828125 L 173.050781 347.175781 L 169.847656 346.667969 L 168.835938 348.1875 L 166.136719 348.1875 L 162.761719 347.851562 L 161.246094 348.695312 L 160.234375 349.707031 L 157.535156 349.707031 L 158.039062 351.5625 L 155.679688 352.066406 L 152.980469 351.898438 L 150.957031 352.574219 L 148.425781 351.390625 L 146.570312 352.910156 L 144.378906 352.402344 L 142.523438 352.910156 L 139.320312 352.574219 L 137.632812 353.246094 L 137.464844 354.933594 L 133.921875 354.257812 L 132.066406 354.765625 L 130.042969 355.269531 L 127.851562 355.609375 L 126.332031 356.453125 L 124.476562 356.285156 L 122.453125 356.621094 L 120.261719 356.113281 L 117.730469 355.945312 L 115.539062 355.609375 L 113.683594 354.933594 L 111.660156 354.429688 L 108.960938 354.597656 L 107.609375 355.441406 L 106.9375 356.453125 L 105.25 357.296875 L 106.261719 358.644531 L 102.71875 358.980469 L 102.214844 359.992188 L 100.191406 360.5 L 99.347656 361.679688 L 97.828125 362.523438 L 95.804688 363.199219 L 93.273438 363.703125 L 90.574219 363.367188 L 88.046875 364.210938 L 85.515625 363.03125 L 82.984375 363.367188 L 80.289062 362.523438 L 77.757812 363.03125 L 75.902344 364.714844 L 74.550781 362.523438 L 72.699219 364.042969 L 70.503906 363.703125 L 66.792969 363.535156 L 68.816406 365.558594 L 66.457031 366.066406 L 62.410156 365.898438 L 64.433594 367.753906 L 61.226562 367.921875 L 60.046875 367.921875 L 57.011719 368.933594 L 57.179688 367.246094 L 55.664062 366.402344 L 53.132812 366.066406 L 52.121094 365.054688 L 49.589844 364.714844 L 49.421875 363.199219 L 44.699219 364.210938 L 45.375 362.1875 L 42.507812 362.1875 L 39.300781 362.355469 L 39.976562 360.332031 L 35.929688 361.175781 L 35.085938 359.65625 L 32.554688 359.488281 L 29.351562 359.824219 L 28.171875 358.476562 L 25.132812 358.8125 L 23.953125 358.476562 L 23.449219 358.980469 L 20.410156 359.320312 L 21.085938 360.835938 L 18.050781 361.175781 L 16.53125 362.019531 L 13.835938 362.523438 L 14.339844 364.378906 L 10.96875 363.199219 L 8.941406 363.703125 L 6.75 363.875 L 4.558594 364.042969 L 2.363281 365.390625 L 0.511719 363.703125 L -2.1875 363.875 L -5.226562 364.378906 L -7.078125 363.199219 L -9.105469 361.847656 L -11.800781 363.367188 L -13.996094 362.691406 L -17.367188 363.535156 L -17.367188 577.90625 Z M 840.109375 577.90625 " fill-opacity="1" fill-rule="nonzero"/></g><g clip-path="url(#1dd1036b63)"><path fill="#333333" d="M 840.109375 383.4375 C 835.726562 384.28125 833.535156 380.066406 829.148438 381.246094 C 826.957031 381.75 822.402344 378.882812 820.210938 379.558594 C 818.691406 380.066406 816.667969 380.234375 815.488281 380.910156 C 814.472656 381.414062 813.800781 382.761719 812.621094 383.101562 C 812.113281 383.269531 812.113281 383.269531 811.101562 383.4375 C 810.933594 383.4375 810.59375 383.605469 810.257812 383.605469 C 808.738281 383.777344 807.898438 384.789062 806.210938 385.125 C 802.332031 385.460938 798.621094 390.691406 794.742188 390.691406 C 793.898438 390.523438 793.054688 390.183594 792.210938 389.679688 C 789.511719 388.328125 785.800781 388.667969 782.597656 388.667969 C 781.585938 388.667969 779.5625 387.824219 779.054688 386.980469 C 778.71875 386.304688 779.730469 385.800781 779.5625 385.125 C 778.886719 384.449219 777.367188 383.4375 776.695312 382.425781 C 774.332031 379.894531 768.429688 377.871094 766.070312 375.679688 C 765.898438 375.34375 766.40625 374.667969 766.40625 374.332031 C 765.898438 373.65625 765.054688 373.65625 764.550781 373.148438 C 764.042969 372.644531 763.707031 371.632812 762.695312 370.957031 C 762.019531 370.453125 761.175781 370.28125 760.503906 370.113281 C 758.140625 369.269531 756.117188 369.101562 753.417969 369.101562 C 750.046875 368.933594 746.503906 373.148438 743.300781 373.992188 C 742.117188 374.332031 740.9375 376.523438 739.925781 375.847656 C 738.578125 374.835938 737.566406 373.65625 735.710938 373.148438 C 734.527344 372.644531 733.683594 372.304688 733.515625 371.632812 C 733.347656 371.292969 733.347656 371.125 733.011719 370.789062 C 732.84375 370.621094 732.671875 370.621094 732.335938 370.453125 C 729.976562 370.28125 728.625 368.425781 726.09375 367.921875 C 723.902344 367.078125 722.386719 366.402344 720.023438 366.402344 C 716.480469 366.742188 712.433594 361.511719 709.058594 363.367188 C 707.710938 364.042969 706.363281 364.714844 704.84375 364.546875 C 701.976562 364.378906 698.941406 358.140625 696.074219 357.296875 C 695.0625 357.125 693.882812 356.957031 692.867188 356.957031 C 687.472656 356.789062 690 355.273438 684.265625 356.113281 C 681.570312 356.621094 678.871094 366.910156 676.171875 367.078125 C 672.796875 367.414062 677.351562 369.609375 674.148438 370.453125 C 673.640625 370.621094 673.136719 370.957031 672.628906 371.292969 C 671.953125 371.96875 671.785156 372.644531 671.28125 373.148438 C 668.917969 374.667969 665.546875 372.644531 663.015625 372.8125 C 660.824219 373.148438 658.96875 374.5 656.605469 373.992188 C 655.257812 373.824219 653.738281 371.292969 652.390625 371.632812 C 650.535156 372.136719 649.523438 374.160156 647.332031 374.332031 C 646.316406 374.667969 644.96875 374.667969 643.957031 375.003906 C 643.113281 375.511719 640.078125 376.691406 640.414062 377.871094 C 640.414062 378.042969 640.414062 378.210938 640.414062 378.378906 C 640.414062 378.546875 640.246094 378.714844 640.078125 378.882812 C 639.742188 379.222656 634.847656 377.367188 634.511719 377.535156 C 632.320312 378.882812 637.042969 380.066406 634.003906 380.570312 C 631.980469 380.910156 629.621094 380.570312 627.597656 380.234375 C 622.199219 379.222656 621.523438 386.304688 616.296875 385.96875 C 613.933594 385.96875 611.742188 386.8125 609.382812 386.136719 C 608.03125 385.800781 606.683594 386.304688 605.5 386.8125 C 604.488281 387.148438 603.476562 386.980469 602.464844 386.980469 C 600.105469 387.65625 597.574219 386.980469 595.214844 386.980469 C 591.671875 387.148438 587.792969 385.800781 584.25 386.304688 C 581.71875 386.980469 579.867188 385.96875 577.839844 384.789062 C 576.660156 384.28125 578.515625 381.414062 577.839844 380.570312 C 576.660156 379.222656 574.46875 375.511719 572.949219 374.835938 C 570.082031 373.992188 568.058594 371.800781 565.023438 371.464844 C 563 371.125 558.613281 377.871094 556.589844 378.546875 C 554.566406 379.390625 552.542969 378.546875 550.347656 378.546875 C 548.324219 378.882812 545.625 384.449219 543.601562 383.605469 C 543.097656 383.4375 542.589844 383.101562 542.085938 382.933594 C 542.085938 382.933594 540.734375 382.089844 540.902344 382.089844 C 540.230469 381.582031 541.242188 380.738281 541.074219 380.402344 C 540.902344 379.894531 538.710938 380.234375 538.710938 379.894531 C 538.710938 379.558594 538.878906 379.558594 538.710938 379.054688 C 537.699219 378.546875 535.84375 379.054688 534.664062 378.546875 C 531.796875 377.871094 529.097656 376.523438 526.230469 377.199219 C 524.207031 377.703125 522.183594 376.859375 519.988281 376.691406 C 518.808594 376.691406 517.628906 377.199219 516.617188 377.199219 C 512.0625 376.1875 507.171875 374.332031 502.449219 373.488281 C 498.402344 372.980469 493.003906 373.992188 489.96875 370.621094 C 488.789062 369.777344 489.125 368.933594 488.957031 367.753906 C 487.4375 365.054688 483.894531 367.246094 481.367188 366.234375 C 473.269531 362.863281 464.667969 351.730469 454.210938 351.898438 C 453.199219 352.066406 451.007812 352.066406 451.511719 353.417969 C 451.683594 354.933594 450.332031 352.234375 448.644531 352.066406 C 444.261719 352.066406 438.019531 355.777344 433.636719 356.285156 C 432.117188 356.789062 432.453125 359.320312 430.9375 360.164062 C 429.753906 360.835938 429.25 364.210938 428.070312 364.546875 C 426.550781 364.886719 424.695312 364.210938 423.683594 365.054688 C 423.007812 365.558594 420.140625 368.257812 419.46875 368.597656 C 417.949219 369.101562 416.261719 368.425781 414.746094 368.765625 C 413.734375 368.765625 413.902344 368.597656 412.890625 367.921875 C 411.539062 367.246094 409.179688 368.089844 407.828125 367.585938 C 407.15625 367.414062 406.816406 366.742188 406.480469 366.402344 C 405.972656 365.390625 404.289062 365.390625 403.613281 364.886719 C 403.277344 364.546875 403.105469 366.066406 402.265625 365.898438 C 399.394531 365.054688 396.527344 365.054688 393.660156 363.703125 C 392.480469 363.199219 391.132812 363.199219 389.78125 363.367188 C 386.410156 364.210938 382.699219 360.835938 379.15625 360.164062 C 377.300781 360.164062 369.542969 359.824219 371.398438 356.621094 C 371.566406 356.285156 371.90625 356.113281 371.90625 355.609375 C 370.890625 354.597656 368.363281 359.488281 367.011719 359.488281 C 365.328125 359.65625 363.640625 359.152344 361.785156 359.152344 C 360.097656 359.320312 359.253906 360.332031 357.566406 360.5 C 356.726562 360.667969 355.882812 360.835938 355.207031 361.007812 C 354.53125 361.175781 354.53125 361.175781 354.871094 360.667969 C 355.039062 360.164062 354.871094 359.824219 354.195312 359.65625 C 350.820312 358.980469 349.808594 361.34375 346.941406 359.992188 C 345.085938 358.980469 342.726562 359.992188 340.703125 359.320312 C 335.304688 356.453125 329.0625 348.863281 322.992188 349.03125 C 318.101562 348.523438 314.726562 341.777344 309.835938 342.789062 C 307.8125 342.621094 306.632812 343.800781 304.945312 343.972656 C 300.390625 342.285156 294.488281 355.273438 290.609375 351.390625 C 289.429688 350.378906 287.574219 351.730469 286.5625 352.066406 C 283.695312 352.742188 280.65625 349.707031 278.296875 350.71875 C 277.117188 351.054688 275.765625 350.886719 274.585938 350.886719 C 272.5625 351.390625 270.875 352.066406 268.515625 351.898438 C 266.996094 351.898438 265.476562 352.574219 264.128906 352.574219 C 262.441406 352.40625 260.25 351.390625 258.394531 351.222656 C 255.191406 350.886719 252.152344 345.152344 249.285156 345.828125 C 247.9375 346.332031 247.769531 347.511719 246.589844 348.019531 C 246.082031 348.1875 245.578125 348.1875 245.070312 348.355469 C 237.816406 349.707031 231.410156 351.5625 223.820312 351.898438 C 221.121094 352.066406 218.085938 355.101562 216.230469 357.125 C 215.554688 357.96875 214.710938 358.476562 213.699219 358.644531 C 209.3125 358.8125 204.589844 360.332031 200.039062 360.164062 C 195.144531 361.34375 190.421875 362.863281 185.53125 361.511719 C 180.808594 360.5 176.085938 356.621094 171.703125 356.789062 C 170.351562 356.957031 169.339844 357.800781 168.160156 358.140625 C 166.472656 358.476562 164.113281 357.800781 162.59375 358.476562 C 161.414062 359.152344 159.726562 357.296875 158.714844 357.96875 C 158.210938 358.476562 158.378906 358.476562 158.039062 358.8125 C 157.871094 358.980469 157.703125 359.152344 157.703125 359.320312 C 156.859375 359.992188 155.34375 359.992188 154.160156 359.992188 C 149.777344 359.824219 148.257812 362.863281 143.703125 362.691406 C 143.199219 362.691406 140.667969 369.269531 140.164062 369.4375 C 138.476562 369.609375 138.136719 370.957031 136.957031 371.125 C 135.777344 371.292969 133.414062 370.957031 131.898438 371.464844 C 126.332031 373.148438 120.429688 371.632812 114.695312 369.609375 C 113.175781 369.101562 111.660156 368.933594 110.140625 369.269531 C 109.128906 369.609375 108.117188 369.945312 107.441406 370.621094 C 106.429688 371.632812 106.597656 368.425781 105.417969 368.765625 C 102.042969 369.609375 99.515625 372.644531 95.972656 373.320312 C 90.914062 374.332031 85.851562 373.320312 80.792969 372.8125 C 77.925781 373.148438 75.394531 376.523438 72.699219 376.691406 C 71.011719 377.027344 68.816406 378.714844 67.132812 379.222656 C 67.132812 379.558594 67.132812 379.726562 67.300781 379.894531 C 67.46875 380.402344 67.46875 380.738281 66.960938 380.910156 C 66.121094 381.246094 63.925781 381.078125 63.082031 381.246094 C 62.914062 381.414062 62.746094 381.246094 62.914062 381.75 C 62.914062 381.921875 63.082031 382.089844 63.253906 382.257812 C 63.421875 382.59375 63.253906 382.933594 62.914062 382.933594 C 61.734375 383.101562 59.375 380.90625 57.855469 381.246094 C 56.675781 381.246094 56.503906 380.402344 55.492188 379.726562 C 54.480469 379.222656 52.964844 381.078125 51.953125 380.570312 C 50.769531 380.066406 49.757812 379.558594 48.578125 379.222656 C 47.230469 378.714844 45.542969 379.222656 45.035156 378.546875 C 44.867188 378.378906 44.53125 378.039062 44.363281 377.871094 C 43.351562 376.859375 41.328125 375.679688 40.144531 375.003906 C 39.976562 375.171875 39.640625 374.332031 39.640625 374.332031 C 39.472656 373.992188 39.300781 369.269531 38.796875 369.269531 C 37.953125 369.269531 36.773438 369.609375 35.929688 369.269531 C 35.253906 369.101562 34.578125 368.425781 33.566406 368.257812 C 31.882812 368.089844 29.6875 370.621094 28.339844 369.945312 C 26.988281 369.269531 24.964844 369.4375 23.28125 369.777344 C 22.773438 369.777344 22.4375 374.332031 22.097656 374.5 C 20.582031 375.003906 20.75 376.1875 18.894531 376.523438 C 18.050781 376.691406 16.871094 377.027344 16.195312 376.355469 C 15.691406 376.015625 15.015625 375.003906 14.675781 374.5 C 14.339844 373.992188 14.171875 373.992188 14.171875 374.332031 C 13.835938 375.34375 10.796875 373.992188 9.953125 374.667969 C 8.605469 375.511719 7.929688 378.546875 5.90625 379.054688 C 5.234375 379.390625 4.21875 379.558594 3.378906 379.558594 C 2.535156 379.558594 2.027344 379.390625 1.691406 378.714844 C 1.183594 377.535156 1.523438 375.511719 -0.164062 374.835938 C -1.683594 374.160156 -3.371094 375.003906 -5.054688 374.5 C -6.238281 374.332031 -7.585938 373.320312 -8.765625 373.824219 C -11.128906 374.835938 -14.5 377.703125 -17.03125 378.378906 C -17.535156 378.546875 -16.695312 378.714844 -17.03125 378.714844 C -17.367188 378.714844 -17.03125 378.714844 -17.03125 378.882812 C -16.523438 433.195312 -17.367188 547.546875 -17.03125 593.589844 C -21.417969 592.917969 669.257812 594.773438 839.605469 593.929688 C 839.773438 591.734375 840.617188 404.859375 840.109375 383.4375 Z M 840.109375 383.4375 " fill-opacity="1" fill-rule="nonzero"/></g></svg>