<svg xmlns="http://www.w3.org/2000/svg" xmlns:xlink="http://www.w3.org/1999/xlink" width="1123" zoomAndPan="magnify" viewBox="0 0 841.92 595.499987" height="794" preserveAspectRatio="xMidYMid meet" version="1.0"><defs><clipPath id="87c98704c7"><path d="M 0.3125 13 L 841 13 L 841 256.253906 L 0.3125 256.253906 Z M 0.3125 13 " clip-rule="nonzero"/></clipPath><clipPath id="9c9417c742"><path d="M 0.3125 0 L 841 0 L 841 246 L 0.3125 246 Z M 0.3125 0 " clip-rule="nonzero"/></clipPath></defs><g clip-path="url(#87c98704c7)"><path fill="#ffffff" d="M 840.132812 13.589844 L 840.132812 219.996094 L 837.640625 219.832031 L 835.480469 218.667969 L 832.988281 219.332031 L 831.65625 218.167969 L 829.164062 218.335938 L 827.003906 218.003906 L 825.507812 217.171875 L 821.519531 218.003906 L 820.355469 216.675781 L 817.699219 216.507812 L 815.039062 216.175781 L 815.039062 214.679688 L 813.542969 213.847656 L 812.378906 213.019531 L 809.054688 213.183594 L 808.722656 211.855469 L 806.730469 211.355469 L 804.238281 211.855469 L 802.242188 211.191406 L 800.746094 212.1875 L 798.917969 212.851562 L 795.925781 212.351562 L 793.601562 212.519531 L 792.9375 214.347656 L 790.441406 214.515625 L 787.949219 214.347656 L 785.957031 214.847656 L 783.128906 214.179688 L 781.300781 214.847656 L 780.472656 215.84375 L 778.644531 216.675781 L 781.300781 217.835938 L 778.976562 218.667969 L 777.980469 219.664062 L 777.480469 220.332031 L 776.980469 221.660156 L 774.820312 221.992188 L 772.828125 222.492188 L 769.503906 221.492188 L 768.007812 222.492188 L 765.515625 223.15625 L 767.839844 224.652344 L 764.519531 225.148438 L 764.851562 226.3125 L 764.019531 227.476562 L 762.691406 228.640625 L 760.03125 228.640625 L 759.035156 229.804688 L 757.207031 230.300781 L 753.714844 229.304688 L 751.722656 229.804688 L 749.394531 229.472656 L 746.902344 229.804688 L 744.410156 229.804688 L 742.25 228.472656 L 740.585938 229.804688 L 739.089844 230.136719 L 739.089844 231.300781 L 737.761719 232.128906 L 734.9375 232.792969 L 733.773438 233.625 L 735.101562 234.953125 L 731.28125 234.621094 L 730.78125 236.117188 L 729.285156 236.949219 L 726.460938 237.117188 L 725.132812 238.277344 L 723.800781 236.78125 L 721.308594 236.449219 L 718.648438 236.449219 L 715.660156 236.617188 L 713.664062 236.117188 L 711.171875 235.953125 L 709.675781 234.953125 L 707.679688 233.625 L 705.023438 234.457031 L 703.691406 235.453125 L 701.367188 235.785156 L 699.039062 236.117188 L 698.042969 236.949219 L 696.378906 237.28125 L 694.054688 236.78125 L 692.226562 237.28125 L 690.5625 238.445312 L 688.570312 238.277344 L 685.410156 238.777344 L 684.582031 237.613281 L 682.585938 237.117188 L 680.757812 236.617188 L 678.765625 236.285156 L 676.105469 236.449219 L 674.441406 235.621094 L 673.113281 234.457031 L 671.949219 233.792969 L 669.625 233.460938 L 668.960938 232.628906 L 666.632812 231.964844 L 667.628906 230.800781 L 666.464844 229.804688 L 663.808594 229.96875 L 661.480469 230.46875 L 659.152344 230.800781 L 656.828125 230.800781 L 654.5 229.136719 L 652.175781 229.96875 L 649.847656 229.304688 L 647.355469 230.300781 L 646.023438 229.304688 L 645.027344 228.308594 L 645.027344 226.976562 L 641.871094 226.8125 L 638.378906 226.3125 L 641.039062 224.984375 L 642.035156 223.988281 L 643.199219 222.988281 L 641.039062 221.824219 L 639.210938 220.664062 L 641.871094 219.664062 L 641.871094 218.667969 L 639.710938 217.671875 L 637.382812 218.503906 L 635.058594 218.667969 L 632.730469 219 L 630.402344 218.835938 L 627.910156 218.835938 L 625.75 218.171875 L 623.589844 217.671875 L 621.429688 217.007812 L 618.769531 217.503906 L 616.277344 217.671875 L 614.449219 216.507812 L 611.457031 217.503906 L 608.964844 217.503906 L 607.304688 215.675781 L 604.644531 216.839844 L 602.648438 215.675781 L 600.324219 216.007812 L 597.996094 216.507812 L 595.835938 216.007812 L 593.84375 216.507812 L 592.015625 217.007812 L 589.023438 216.507812 L 587.195312 217.339844 L 583.871094 216.34375 L 582.042969 217.339844 L 581.210938 218.503906 L 578.386719 218.835938 L 578.71875 220.332031 L 578.054688 221.492188 L 573.898438 221.328125 L 572.402344 221.992188 L 571.242188 222.824219 L 568.914062 223.320312 L 568.414062 225.148438 L 562.929688 225.148438 L 560.769531 225.648438 L 559.605469 223.988281 L 557.445312 223.820312 L 554.457031 224.984375 L 552.628906 224.320312 L 550.632812 223.820312 L 548.140625 223.15625 L 546.144531 223.988281 L 545.316406 224.816406 L 543.320312 225.316406 L 545.648438 227.144531 L 541.328125 227.144531 L 543.15625 228.804688 L 538.667969 228.308594 L 537.671875 228.972656 L 535.675781 229.472656 L 533.683594 229.96875 L 532.019531 230.964844 L 529.359375 229.96875 L 527.199219 229.636719 L 525.039062 230.632812 L 522.878906 230.964844 L 520.71875 229.472656 L 518.390625 230.964844 L 516.230469 229.96875 L 514.070312 230.300781 L 511.910156 229.636719 L 509.75 229.472656 L 507.425781 229.136719 L 505.097656 229.96875 L 502.769531 230.46875 L 500.277344 229.96875 L 497.953125 230.136719 L 495.625 230.632812 L 494.960938 231.632812 L 495.292969 232.628906 L 492.46875 233.292969 L 492.964844 234.289062 L 493.960938 235.453125 L 492.132812 235.953125 L 491.636719 237.449219 L 487.980469 236.117188 L 485.984375 236.617188 L 484.988281 238.277344 L 482.164062 237.78125 L 480.167969 238.445312 L 480.335938 239.441406 L 478.007812 240.273438 L 475.515625 240.773438 L 472.523438 241.269531 L 467.039062 243.429688 L 463.714844 244.09375 L 456.902344 244.261719 L 453.414062 243.761719 L 454.410156 242.601562 L 454.574219 241.4375 L 452.746094 240.605469 L 453.082031 239.277344 L 449.921875 239.941406 L 448.09375 239.277344 L 445.769531 239.277344 L 444.273438 238.277344 L 442.277344 237.945312 L 439.285156 238.113281 L 437.792969 237.28125 L 436.460938 236.449219 L 433.96875 236.285156 L 432.640625 235.453125 L 432.472656 233.957031 L 430.976562 233.292969 L 426.824219 233.792969 L 426.492188 232.460938 L 424.828125 231.796875 L 423.664062 230.46875 L 422.5 231.964844 L 418.679688 230.964844 L 418.679688 232.960938 L 415.6875 232.460938 L 413.195312 232.460938 L 411.699219 233.292969 L 412.03125 234.953125 L 408.375 235.121094 L 409.039062 236.78125 L 405.550781 236.949219 L 404.554688 237.78125 L 402.394531 237.449219 L 400.398438 238.113281 L 398.570312 239.277344 L 396.578125 239.773438 L 393.917969 238.277344 L 392.089844 237.945312 L 389.929688 237.613281 L 387.601562 237.449219 L 384.941406 238.113281 L 382.617188 237.945312 L 380.289062 237.117188 L 380.457031 238.445312 L 377.464844 239.109375 L 376.964844 240.105469 L 376.300781 241.105469 L 378.960938 242.601562 L 376.136719 243.265625 L 374.804688 243.597656 L 374.140625 242.933594 L 371.980469 242.765625 L 368.988281 243.429688 L 366.664062 243.429688 L 365.996094 241.601562 L 363.007812 242.265625 L 360.511719 240.773438 L 362.507812 242.765625 L 358.019531 243.097656 L 358.351562 244.261719 L 357.6875 245.257812 L 356.691406 246.089844 L 356.191406 247.085938 L 355.527344 247.917969 L 354.199219 248.75 L 353.035156 249.746094 L 349.710938 249.246094 L 347.550781 249.414062 L 346.054688 250.078125 L 344.726562 251.40625 L 342.066406 251.40625 L 340.738281 252.738281 L 338.242188 252.902344 L 335.585938 253.070312 L 332.925781 253.234375 L 330.597656 253.902344 L 327.773438 252.738281 L 325.613281 253.902344 L 322.789062 254.066406 L 320.296875 253.734375 L 318.800781 252.738281 L 316.308594 253.070312 L 313.980469 253.070312 L 312.984375 251.242188 L 310.65625 252.40625 L 309.492188 253.070312 L 305.671875 252.40625 L 304.175781 253.234375 L 301.515625 253.402344 L 299.355469 253.902344 L 298.855469 255.394531 L 296.363281 256.558594 L 294.867188 254.898438 L 292.042969 254.730469 L 290.878906 253.734375 L 289.21875 253.070312 L 286.726562 252.738281 L 286.0625 251.574219 L 283.734375 251.574219 L 281.242188 251.90625 L 279.746094 250.578125 L 277.417969 250.578125 L 275.09375 250.910156 L 272.433594 249.578125 L 270.273438 250.742188 L 267.78125 250.742188 L 265.453125 251.738281 L 262.460938 251.242188 L 259.96875 250.742188 L 257.808594 250.246094 L 255.648438 249.746094 L 255.980469 247.917969 L 253.320312 247.75 L 250.828125 247.417969 L 248.667969 246.921875 L 246.507812 246.589844 L 245.34375 245.589844 L 243.515625 244.761719 L 241.023438 245.757812 L 238.695312 244.59375 L 236.371094 244.429688 L 234.042969 244.59375 L 232.382812 244.09375 L 230.222656 243.929688 L 227.5625 243.597656 L 227.394531 242.433594 L 225.734375 241.769531 L 223.90625 241.105469 L 223.738281 239.609375 L 220.914062 240.273438 L 218.253906 239.277344 L 215.761719 239.441406 L 213.4375 240.105469 L 210.945312 240.605469 L 208.449219 240.773438 L 206.125 240.605469 L 203.964844 239.441406 L 201.636719 239.609375 L 199.308594 239.941406 L 197.980469 240.9375 L 195.652344 241.105469 L 193.824219 241.769531 L 191.332031 241.769531 L 188.507812 241.601562 L 186.847656 241.601562 L 184.1875 242.265625 L 182.859375 240.9375 L 179.699219 241.4375 L 178.703125 239.941406 L 176.042969 239.941406 L 172.71875 240.273438 L 171.222656 239.441406 L 170.226562 238.445312 L 167.566406 238.445312 L 168.066406 236.617188 L 165.738281 236.117188 L 163.082031 236.285156 L 161.085938 235.621094 L 158.59375 236.785156 L 156.765625 235.289062 L 154.605469 235.785156 L 152.777344 235.289062 L 149.621094 235.621094 L 147.957031 234.957031 L 147.792969 233.292969 L 144.300781 233.957031 L 142.472656 233.460938 L 140.480469 232.960938 L 138.320312 232.628906 L 136.824219 231.796875 L 134.996094 231.964844 L 133 231.632812 L 130.839844 232.128906 L 128.347656 232.296875 L 126.1875 232.628906 L 124.359375 233.292969 L 122.363281 233.792969 L 119.707031 233.625 L 118.375 232.792969 L 117.710938 231.796875 L 116.050781 230.964844 L 117.046875 229.636719 L 113.558594 229.304688 L 113.058594 228.308594 L 111.0625 227.808594 L 110.234375 226.644531 L 108.738281 225.816406 L 106.742188 225.148438 L 104.25 224.652344 L 101.589844 224.984375 L 99.097656 224.152344 L 96.605469 225.316406 L 94.113281 224.984375 L 91.453125 225.816406 L 88.960938 225.316406 L 87.132812 223.65625 L 85.804688 225.816406 L 83.976562 224.320312 L 81.816406 224.652344 L 78.160156 224.816406 L 80.152344 222.824219 L 77.824219 222.324219 L 73.835938 222.492188 L 75.832031 220.664062 L 72.675781 220.496094 L 71.511719 220.496094 L 68.519531 219.5 L 68.6875 221.160156 L 67.191406 221.992188 L 64.695312 222.324219 L 63.699219 223.320312 L 61.207031 223.652344 L 61.039062 225.148438 L 56.386719 224.152344 L 57.050781 226.148438 L 54.226562 226.148438 L 51.070312 225.980469 L 51.734375 227.976562 L 47.746094 227.144531 L 46.914062 228.640625 L 44.421875 228.804688 L 41.265625 228.472656 L 40.101562 229.804688 L 37.109375 229.472656 L 35.945312 229.804688 L 35.449219 229.304688 L 32.457031 228.972656 L 33.121094 227.476562 L 30.128906 227.144531 L 28.632812 226.3125 L 25.976562 225.816406 L 26.472656 223.988281 L 23.148438 225.148438 L 21.15625 224.652344 L 18.996094 224.484375 L 16.835938 224.320312 L 14.675781 222.988281 L 12.847656 224.652344 L 10.1875 224.484375 L 7.195312 223.988281 L 5.367188 225.148438 L 3.375 226.480469 L 0.714844 224.984375 L -1.445312 225.648438 L -4.769531 224.816406 L -4.769531 13.589844 Z M 840.132812 13.589844 " fill-opacity="1" fill-rule="nonzero"/></g><g clip-path="url(#9c9417c742)"><path fill="#333333" d="M 840.132812 205.207031 C 835.8125 204.375 833.652344 208.53125 829.332031 207.367188 C 827.171875 206.867188 822.683594 209.695312 820.523438 209.03125 C 819.027344 208.53125 817.035156 208.363281 815.871094 207.699219 C 814.871094 207.203125 814.207031 205.871094 813.042969 205.539062 C 812.546875 205.375 812.546875 205.375 811.550781 205.207031 C 811.382812 205.207031 811.050781 205.042969 810.71875 205.042969 C 809.222656 204.875 808.390625 203.878906 806.730469 203.546875 C 802.90625 203.214844 799.25 198.0625 795.429688 198.0625 C 794.597656 198.226562 793.765625 198.558594 792.9375 199.058594 C 790.277344 200.386719 786.621094 200.054688 783.464844 200.054688 C 782.464844 200.054688 780.472656 200.886719 779.972656 201.71875 C 779.640625 202.382812 780.636719 202.878906 780.472656 203.546875 C 779.808594 204.210938 778.3125 205.207031 777.648438 206.203125 C 775.320312 208.695312 769.503906 210.691406 767.175781 212.851562 C 767.011719 213.183594 767.507812 213.847656 767.507812 214.179688 C 767.011719 214.847656 766.179688 214.847656 765.679688 215.34375 C 765.183594 215.84375 764.851562 216.839844 763.851562 217.503906 C 763.1875 218.003906 762.355469 218.171875 761.691406 218.335938 C 759.367188 219.167969 757.371094 219.332031 754.710938 219.332031 C 751.390625 219.5 747.898438 215.34375 744.742188 214.515625 C 743.578125 214.179688 742.414062 212.019531 741.417969 212.6875 C 740.089844 213.683594 739.089844 214.847656 737.261719 215.34375 C 736.097656 215.84375 735.269531 216.175781 735.101562 216.839844 C 734.9375 217.171875 734.9375 217.339844 734.605469 217.671875 C 734.4375 217.835938 734.269531 217.835938 733.9375 218.003906 C 731.613281 218.171875 730.28125 220 727.789062 220.496094 C 725.628906 221.328125 724.132812 221.992188 721.808594 221.992188 C 718.316406 221.660156 714.328125 226.8125 711.003906 224.984375 C 709.675781 224.320312 708.347656 223.652344 706.851562 223.820312 C 704.023438 223.988281 701.035156 230.136719 698.207031 230.964844 C 697.210938 231.132812 696.046875 231.300781 695.050781 231.300781 C 689.734375 231.464844 692.226562 232.960938 686.574219 232.128906 C 683.917969 231.632812 681.257812 221.492188 678.597656 221.328125 C 675.273438 220.996094 679.761719 218.835938 676.605469 218.003906 C 676.105469 217.835938 675.605469 217.503906 675.109375 217.171875 C 674.445312 216.507812 674.277344 215.84375 673.777344 215.34375 C 671.453125 213.847656 668.128906 215.84375 665.636719 215.675781 C 663.476562 215.34375 661.648438 214.015625 659.320312 214.515625 C 657.992188 214.679688 656.496094 217.171875 655.164062 216.839844 C 653.335938 216.34375 652.339844 214.347656 650.179688 214.179688 C 649.183594 213.847656 647.851562 213.847656 646.855469 213.515625 C 646.023438 213.019531 643.035156 211.855469 643.367188 210.691406 C 643.367188 210.523438 643.367188 210.359375 643.367188 210.191406 C 643.367188 210.027344 643.199219 209.859375 643.035156 209.695312 C 642.703125 209.363281 637.882812 211.191406 637.550781 211.023438 C 635.390625 209.695312 640.042969 208.53125 637.050781 208.03125 C 635.058594 207.699219 632.730469 208.03125 630.734375 208.363281 C 625.417969 209.363281 624.753906 202.382812 619.601562 202.714844 C 617.273438 202.714844 615.113281 201.882812 612.789062 202.546875 C 611.457031 202.878906 610.128906 202.382812 608.964844 201.882812 C 607.96875 201.550781 606.972656 201.71875 605.972656 201.71875 C 603.648438 201.050781 601.152344 201.71875 598.828125 201.71875 C 595.335938 201.550781 591.515625 202.878906 588.023438 202.382812 C 585.53125 201.71875 583.703125 202.714844 581.710938 203.878906 C 580.546875 204.375 582.375 207.203125 581.710938 208.03125 C 580.546875 209.363281 578.386719 213.019531 576.890625 213.683594 C 574.066406 214.515625 572.070312 216.675781 569.078125 217.007812 C 567.085938 217.339844 562.765625 210.691406 560.769531 210.027344 C 558.777344 209.195312 556.78125 210.027344 554.621094 210.027344 C 552.628906 209.695312 549.96875 204.210938 547.972656 205.042969 C 547.476562 205.207031 546.976562 205.539062 546.476562 205.707031 C 546.476562 205.707031 545.148438 206.535156 545.316406 206.535156 C 544.648438 207.035156 545.648438 207.867188 545.480469 208.199219 C 545.316406 208.695312 543.15625 208.363281 543.15625 208.695312 C 543.15625 209.03125 543.320312 209.03125 543.15625 209.527344 C 542.15625 210.027344 540.328125 209.527344 539.164062 210.027344 C 536.339844 210.691406 533.683594 212.019531 530.855469 211.355469 C 528.863281 210.859375 526.867188 211.6875 524.707031 211.855469 C 523.542969 211.855469 522.378906 211.355469 521.382812 211.355469 C 516.898438 212.351562 512.078125 214.179688 507.425781 215.011719 C 503.433594 215.511719 498.117188 214.515625 495.125 217.835938 C 493.960938 218.667969 494.296875 219.5 494.128906 220.664062 C 492.632812 223.320312 489.144531 221.160156 486.648438 222.160156 C 478.671875 225.480469 470.199219 236.449219 459.894531 236.285156 C 458.898438 236.117188 456.734375 236.117188 457.234375 234.789062 C 457.402344 233.292969 456.070312 235.953125 454.410156 236.117188 C 450.089844 236.117188 443.941406 232.460938 439.617188 231.964844 C 438.125 231.464844 438.457031 228.972656 436.960938 228.140625 C 435.796875 227.476562 435.296875 224.152344 434.132812 223.820312 C 432.640625 223.488281 430.8125 224.152344 429.8125 223.320312 C 429.148438 222.824219 426.324219 220.164062 425.660156 219.832031 C 424.164062 219.332031 422.5 219.996094 421.003906 219.664062 C 420.007812 219.664062 420.175781 219.832031 419.175781 220.496094 C 417.847656 221.160156 415.519531 220.332031 414.191406 220.828125 C 413.527344 220.996094 413.195312 221.660156 412.863281 221.992188 C 412.363281 222.988281 410.703125 222.988281 410.039062 223.488281 C 409.703125 223.820312 409.539062 222.324219 408.707031 222.492188 C 405.882812 223.320312 403.058594 223.320312 400.230469 224.652344 C 399.070312 225.148438 397.738281 225.148438 396.410156 224.984375 C 393.085938 224.152344 389.429688 227.476562 385.941406 228.140625 C 384.113281 228.140625 376.46875 228.472656 378.296875 231.632812 C 378.460938 231.964844 378.792969 232.128906 378.792969 232.628906 C 377.796875 233.625 375.304688 228.804688 373.972656 228.804688 C 372.3125 228.640625 370.652344 229.136719 368.824219 229.136719 C 367.160156 228.972656 366.328125 227.976562 364.667969 227.808594 C 363.835938 227.644531 363.003906 227.476562 362.339844 227.308594 C 361.675781 227.144531 361.675781 227.144531 362.007812 227.644531 C 362.175781 228.140625 362.007812 228.472656 361.34375 228.640625 C 358.019531 229.304688 357.023438 226.976562 354.199219 228.308594 C 352.371094 229.304688 350.042969 228.308594 348.046875 228.972656 C 342.730469 231.796875 336.582031 239.277344 330.597656 239.109375 C 325.78125 239.609375 322.457031 246.257812 317.636719 245.257812 C 315.640625 245.425781 314.480469 244.261719 312.816406 244.09375 C 308.328125 245.757812 302.511719 232.960938 298.691406 236.78125 C 297.527344 237.78125 295.699219 236.449219 294.703125 236.117188 C 291.878906 235.453125 288.886719 238.445312 286.558594 237.449219 C 285.394531 237.117188 284.066406 237.28125 282.902344 237.28125 C 280.910156 236.78125 279.246094 236.117188 276.921875 236.285156 C 275.425781 236.285156 273.929688 235.621094 272.597656 235.621094 C 270.9375 235.785156 268.777344 236.78125 266.949219 236.949219 C 263.792969 237.28125 260.800781 242.933594 257.972656 242.265625 C 256.644531 241.769531 256.480469 240.605469 255.316406 240.105469 C 254.816406 239.941406 254.320312 239.941406 253.820312 239.773438 C 246.671875 238.445312 240.359375 236.617188 232.878906 236.285156 C 230.222656 236.117188 227.230469 233.128906 225.402344 231.132812 C 224.738281 230.300781 223.90625 229.804688 222.910156 229.636719 C 218.585938 229.472656 213.933594 227.976562 209.449219 228.140625 C 204.628906 226.976562 199.976562 225.480469 195.15625 226.8125 C 190.503906 227.808594 185.847656 231.632812 181.527344 231.464844 C 180.199219 231.300781 179.199219 230.46875 178.039062 230.136719 C 176.375 229.804688 174.050781 230.46875 172.554688 229.804688 C 171.390625 229.136719 169.726562 230.964844 168.730469 230.300781 C 168.234375 229.804688 168.398438 229.804688 168.066406 229.472656 C 167.898438 229.304688 167.734375 229.136719 167.734375 228.972656 C 166.902344 228.308594 165.40625 228.308594 164.246094 228.308594 C 159.921875 228.472656 158.425781 225.480469 153.941406 225.648438 C 153.441406 225.648438 150.949219 219.167969 150.449219 219 C 148.789062 218.835938 148.457031 217.503906 147.292969 217.339844 C 146.128906 217.171875 143.804688 217.503906 142.308594 217.007812 C 136.824219 215.34375 131.007812 216.839844 125.355469 218.835938 C 123.859375 219.332031 122.363281 219.5 120.867188 219.167969 C 119.871094 218.835938 118.875 218.503906 118.210938 217.835938 C 117.210938 216.839844 117.378906 220 116.214844 219.664062 C 112.890625 218.835938 110.398438 215.84375 106.910156 215.179688 C 101.921875 214.179688 96.9375 215.179688 91.953125 215.675781 C 89.125 215.34375 86.632812 212.019531 83.976562 211.855469 C 82.3125 211.523438 80.152344 209.859375 78.492188 209.363281 C 78.492188 209.03125 78.492188 208.863281 78.65625 208.699219 C 78.824219 208.199219 78.824219 207.867188 78.324219 207.699219 C 77.492188 207.367188 75.332031 207.535156 74.503906 207.367188 C 74.335938 207.203125 74.167969 207.367188 74.335938 206.871094 C 74.335938 206.703125 74.503906 206.535156 74.667969 206.371094 C 74.835938 206.039062 74.667969 205.707031 74.335938 205.707031 C 73.171875 205.539062 70.847656 207.699219 69.351562 207.367188 C 68.1875 207.367188 68.019531 208.199219 67.023438 208.863281 C 66.027344 209.363281 64.53125 207.535156 63.535156 208.03125 C 62.371094 208.53125 61.375 209.03125 60.210938 209.363281 C 58.878906 209.859375 57.21875 209.363281 56.71875 210.027344 C 56.554688 210.191406 56.222656 210.523438 56.054688 210.691406 C 55.058594 211.6875 53.0625 212.851562 51.902344 213.515625 C 51.734375 213.351562 51.402344 214.179688 51.402344 214.179688 C 51.234375 214.515625 51.070312 219.167969 50.570312 219.167969 C 49.738281 219.167969 48.578125 218.835938 47.746094 219.167969 C 47.082031 219.332031 46.417969 220 45.417969 220.164062 C 43.757812 220.332031 41.597656 217.835938 40.265625 218.503906 C 38.9375 219.167969 36.945312 219 35.28125 218.667969 C 34.78125 218.667969 34.449219 214.179688 34.117188 214.015625 C 32.621094 213.515625 32.789062 212.351562 30.960938 212.019531 C 30.128906 211.855469 28.964844 211.523438 28.300781 212.1875 C 27.804688 212.519531 27.136719 213.515625 26.804688 214.015625 C 26.472656 214.515625 26.308594 214.515625 26.308594 214.179688 C 25.976562 213.183594 22.984375 214.515625 22.152344 213.847656 C 20.824219 213.019531 20.160156 210.027344 18.164062 209.527344 C 17.5 209.195312 16.503906 209.03125 15.671875 209.03125 C 14.839844 209.03125 14.34375 209.195312 14.007812 209.859375 C 13.511719 211.023438 13.84375 213.019531 12.179688 213.683594 C 10.6875 214.347656 9.023438 213.515625 7.363281 214.015625 C 6.199219 214.179688 4.871094 215.179688 3.707031 214.679688 C 1.378906 213.683594 -1.945312 210.859375 -4.4375 210.191406 C -4.9375 210.027344 -4.105469 209.859375 -4.4375 209.859375 C -4.769531 209.859375 -4.4375 209.859375 -4.4375 209.695312 C -3.9375 156.179688 -4.769531 43.503906 -4.4375 -1.863281 C -8.757812 -1.199219 671.785156 -3.027344 839.636719 -2.195312 C 839.800781 -0.0351562 840.632812 184.101562 840.132812 205.207031 Z M 840.132812 205.207031 " fill-opacity="1" fill-rule="nonzero"/></g></svg>